<svg width="152" height="152" viewBox="0 0 152 152" fill="none" xmlns="http://www.w3.org/2000/svg">
<path d="M95.7116 55.4679C107.801 67.5578 126.692 68.0615 139.537 57.231L93.9485 11.6421C83.1179 24.2357 83.8736 43.378 95.7116 55.4679ZM141.552 9.62709C129.714 -2.46279 110.572 -2.96654 97.7266 7.61211L143.567 53.4529C154.146 40.6074 153.642 21.4651 141.552 9.62709Z" fill="#C6CEDB"/>
<path d="M144.323 54.2086L96.9709 6.85657C96.4672 7.61219 95.7116 8.11593 94.956 8.87155C94.4522 9.37529 93.6966 10.1309 93.1928 10.8865L140.293 57.9867C141.049 57.483 141.552 56.7273 142.308 56.2236C143.064 55.468 143.567 54.7124 144.323 54.2086ZM75.5618 47.6599L10.5786 128.007L13.853 131.03L0 148.409L2.7706 151.18L20.1498 137.327L23.1723 140.601L103.52 75.6178L75.5618 47.6599Z" fill="#3E4347"/>
<path d="M140.293 88.967C138.53 79.8996 130.218 78.1365 130.218 78.1365L114.35 107.354C113.846 104.079 111.328 100.301 107.046 98.2863C101.253 95.0119 94.4522 96.0194 92.1854 100.049C89.9185 104.079 92.941 110.124 98.734 113.399C104.527 116.673 111.328 115.665 113.595 111.636L126.188 88.2114C127.448 88.2114 129.462 88.967 132.233 92.2413C138.026 98.79 145.834 99.5456 145.834 99.5456C145.834 99.5456 141.552 96.775 140.293 88.967ZM69.0131 8.61964C61.4569 -2.46275 49.1152 0.307844 49.1152 0.307844L45.3371 48.9192C42.8183 44.6374 37.0253 41.3631 30.2247 40.8593C20.4017 40.1037 12.0899 45.1412 11.5861 51.9417C11.0824 58.9942 18.3867 65.291 28.2097 66.0466C38.0328 66.8022 46.3446 61.7647 46.8483 54.9642L49.8708 16.1758C51.6339 15.4202 54.6563 15.1683 60.1975 17.9389C71.7837 23.2282 82.6142 19.702 82.6142 19.702C82.6142 19.702 75.5618 18.4427 69.0131 8.61964Z" fill="#4FD1D9"/>
<path d="M120.395 64.7872L86.3923 30.7844L82.1105 39.6L111.58 69.0691L120.395 64.7872Z" fill="#3E4347"/>
<path d="M103.52 75.6178L75.5618 47.6599L82.1105 39.6L111.58 69.0691L103.52 75.6178ZM93.956 9.25189L95.3816 7.82629L143.469 55.9138L142.044 57.3394L93.956 9.25189Z" fill="#C6CEDB"/>
<path d="M8.61401 130.166L10.7549 128.03L23.3989 140.674L21.2605 142.812L8.61401 130.166Z" fill="#8A94A0"/>
<path d="M36.5215 116.421C37.4953 116.421 38.2846 115.632 38.2846 114.658C38.2846 113.684 37.4953 112.895 36.5215 112.895C35.5478 112.895 34.7584 113.684 34.7584 114.658C34.7584 115.632 35.5478 116.421 36.5215 116.421Z" fill="#C6CEDB"/>
<path d="M28.2097 127.503C30.7136 127.503 32.7434 125.474 32.7434 122.97C32.7434 120.466 30.7136 118.436 28.2097 118.436C25.7058 118.436 23.676 120.466 23.676 122.97C23.676 125.474 25.7058 127.503 28.2097 127.503Z" fill="#C6CEDB"/>
<path d="M22.9204 121.962H33.2472V124.229H22.9204V121.962Z" fill="#3E4347"/>
<path d="M80.5992 75.114C83.1031 75.114 85.1329 73.0842 85.1329 70.5803C85.1329 68.0764 83.1031 66.0466 80.5992 66.0466C78.0953 66.0466 76.0655 68.0764 76.0655 70.5803C76.0655 73.0842 78.0953 75.114 80.5992 75.114Z" fill="#C6CEDB"/>
<path d="M76.199 67.5805L77.8009 65.9761L85.1052 73.2779L83.5033 74.8798L76.199 67.5805Z" fill="#3E4347"/>
<path d="M24.1798 134.556C23.9279 134.808 23.4241 134.808 23.1723 134.556L16.3717 127.755C16.1198 127.504 16.1198 127 16.3717 126.748C16.6236 126.496 17.1273 126.496 17.3792 126.748L24.1798 133.548C24.4316 134.052 24.4316 134.304 24.1798 134.556ZM49.9262 92.2288L68.0912 74.0637L76.9974 82.9674L58.8299 101.135L49.9262 92.2288Z" fill="#C6CEDB"/>
<path d="M52.7068 91.8987L60.3638 84.2418L66.7764 90.652L59.117 98.3089L52.7068 91.8987Z" fill="#8A94A0"/>
<path d="M54.145 91.5865L55.0366 90.6974L60.3789 96.0396L59.4898 96.9313L54.145 91.5865ZM55.9761 89.9519L56.8678 89.0628L62.21 94.405L61.3209 95.2966L55.9761 89.9519ZM57.4471 88.3223L58.3387 87.4306L63.6809 92.7754L62.7918 93.6645L57.4471 88.3223ZM59.2757 86.6901L60.1648 85.7985L65.507 91.1432L64.6179 92.0323L59.2757 86.6901ZM60.3235 84.3704L67.9804 76.7109L74.3956 83.1211L66.7386 90.7805L60.3235 84.3704Z" fill="#3E4347"/>
</svg>
