<svg width="40" height="40" viewBox="0 0 40 40" fill="none" xmlns="http://www.w3.org/2000/svg">
<g clip-path="url(#clip0_33_254)">
<path d="M9.375 0H30.625C35.8027 0 40 4.19733 40 9.375V30.625C40 35.8027 35.8027 40 30.625 40H9.375C4.19733 40 0 35.8027 0 30.625V9.375C0 4.19733 4.19733 0 9.375 0Z" fill="url(#paint0_radial_33_254)"/>
<path d="M9.375 0H30.625C35.8027 0 40 4.19733 40 9.375V30.625C40 35.8027 35.8027 40 30.625 40H9.375C4.19733 40 0 35.8027 0 30.625V9.375C0 4.19733 4.19733 0 9.375 0Z" fill="url(#paint1_radial_33_254)"/>
<path d="M19.9986 4.375C24.242 4.375 24.7747 4.39359 26.4412 4.46938C28.1047 4.54563 29.2402 4.80891 30.2336 5.19531C31.2614 5.59438 32.1331 6.12828 33.0016 6.99703C33.8708 7.86563 34.4047 8.73734 34.805 9.76469C35.1925 10.7584 35.4561 11.8944 35.5309 13.557C35.6055 15.2238 35.625 15.7566 35.625 20.0002C35.625 24.2438 35.6062 24.7747 35.5306 26.4413C35.4541 28.1047 35.1908 29.2402 34.8047 30.2336C34.4053 31.2614 33.8714 32.1331 33.0027 33.0016C32.1344 33.8708 31.2627 34.4059 30.2356 34.805C29.2414 35.1914 28.1058 35.4547 26.4427 35.5309C24.7759 35.6067 24.2437 35.6253 20.0005 35.6253C15.7566 35.6253 15.2256 35.6067 13.5591 35.5309C11.8956 35.4547 10.7589 35.1914 9.76469 34.805C8.73734 34.4059 7.86688 33.8708 6.99875 33.0016C6.12953 32.1331 5.59578 31.2614 5.19531 30.2341C4.81125 29.2402 4.5475 28.1044 4.46938 26.4416C4.39453 24.775 4.375 24.2438 4.375 20.0002C4.375 15.7566 4.39453 15.2241 4.46938 13.5573C4.5475 11.8939 4.81125 10.7586 5.19531 9.76516C5.59578 8.73734 6.12953 7.86563 6.99875 6.99703C7.86781 6.12797 8.73703 5.59406 9.76562 5.19547C10.7617 4.80891 11.8978 4.54547 13.5613 4.46938C15.228 4.39359 15.7586 4.375 20.0034 4.375H19.9986ZM21.4003 7.19078C20.9842 7.19016 20.52 7.19078 19.9986 7.19078C15.8266 7.19078 15.3322 7.20578 13.6847 7.28063C12.1613 7.35031 11.3344 7.60484 10.7836 7.81875C10.0544 8.10188 9.53453 8.44047 8.98797 8.9875C8.44109 9.53438 8.10266 10.0552 7.81875 10.7844C7.60484 11.3344 7.35 12.1613 7.28062 13.6847C7.20578 15.3319 7.18953 15.8266 7.18953 19.9966C7.18953 24.1666 7.20578 24.6614 7.28062 26.3084C7.35031 27.8319 7.60484 28.6588 7.81875 29.2089C8.10187 29.9381 8.44109 30.4573 8.98797 31.0039C9.53484 31.5508 10.0541 31.8892 10.7836 32.1725C11.3337 32.3873 12.1613 32.6413 13.6847 32.7109C15.3319 32.7858 15.8266 32.802 19.9986 32.802C24.1708 32.802 24.6653 32.7858 26.3123 32.7109C27.8358 32.6406 28.6627 32.3861 29.2139 32.1722C29.943 31.8889 30.4639 31.5505 31.0108 31.0036C31.5577 30.4567 31.8961 29.9372 32.18 29.2077C32.3939 28.6575 32.6488 27.8306 32.7181 26.3072C32.793 24.66 32.808 24.1653 32.808 19.9927C32.808 15.8202 32.793 15.328 32.7181 13.6808C32.6484 12.1573 32.3939 11.3305 32.18 10.7797C31.8967 10.0505 31.5577 9.52969 31.0106 8.98281C30.4637 8.43594 29.943 8.09734 29.2138 7.81359C28.663 7.59875 27.8358 7.34484 26.3123 7.27484C24.8709 7.20969 24.3123 7.19016 21.4003 7.18688V7.19078ZM11.658 9.78516C12.6931 9.78516 13.533 10.6242 13.533 11.6595C13.533 12.6947 12.6931 13.5345 11.658 13.5345C10.6228 13.5345 9.78297 12.6947 9.78297 11.6595C9.78297 10.6244 10.6228 9.78453 11.658 9.78453V9.78516ZM19.9986 11.9759C24.4298 11.9759 28.0227 15.5688 28.0227 20.0002C28.0227 24.4316 24.4298 28.0227 19.9986 28.0227C15.5672 28.0227 11.9756 24.4316 11.9756 20.0002C11.9756 15.5689 15.5675 11.9759 19.9989 11.9759H19.9986ZM19.9986 14.7917C17.1222 14.7917 14.7902 17.1234 14.7902 20.0002C14.7902 22.8766 17.1222 25.2086 19.9986 25.2086C22.8752 25.2086 25.2069 22.8766 25.2069 20.0002C25.2069 17.1234 22.8752 14.7917 19.9986 14.7917Z" fill="white"/>
</g>
<defs>
<radialGradient id="paint0_radial_33_254" cx="0" cy="0" r="1" gradientUnits="userSpaceOnUse" gradientTransform="translate(29.375 43.0808) rotate(-90) scale(39.643 36.8711)">
<stop stop-color="#FFDD55"/>
<stop offset="0.1" stop-color="#FFDD55"/>
<stop offset="0.5" stop-color="#FF543E"/>
<stop offset="1" stop-color="#C837AB"/>
</radialGradient>
<radialGradient id="paint1_radial_33_254" cx="0" cy="0" r="1" gradientUnits="userSpaceOnUse" gradientTransform="translate(46.7002 2.88141) rotate(101.319) scale(17.7206 73.045)">
<stop stop-color="#3771C8"/>
<stop offset="0.128" stop-color="#3771C8"/>
<stop offset="1" stop-color="#6600FF" stop-opacity="0"/>
</radialGradient>
<clipPath id="clip0_33_254">
<rect width="40" height="40" fill="white" transform="matrix(-1 0 0 1 40 0)"/>
</clipPath>
</defs>
</svg>
