<svg width="40" height="40" viewBox="0 0 40 40" fill="none" xmlns="http://www.w3.org/2000/svg">
<path d="M19.6557 0C23.2095 0 26.4964 0.761893 29.5164 2.28568C32.5364 3.80945 34.9239 5.88148 36.6788 8.50178C38.4338 11.122 39.3113 13.9801 39.3113 17.0761C39.3113 20.172 38.4338 23.0341 36.6788 25.6625C34.9239 28.2908 32.54 30.3669 29.5274 31.8906C26.5147 33.4144 23.224 34.1763 19.6557 34.1763C18.5295 34.1763 17.3668 34.0876 16.1677 33.9103C10.9612 37.893 8.18985 39.9086 7.85345 39.9569C7.69263 40.0215 7.53909 40.0135 7.39284 39.9328C7.33429 39.8844 7.2904 39.8199 7.26116 39.7393C7.23193 39.6586 7.21727 39.5861 7.21727 39.5216V39.4249C7.30506 38.796 7.97047 36.1758 9.2136 31.5641C6.39101 30.0161 4.14977 27.9643 2.48986 25.4085C0.829957 22.8528 0 20.0753 0 17.0761C0 13.9801 0.877485 11.122 2.63245 8.50178C4.38742 5.88148 6.77491 3.80945 9.79495 2.28568C12.8149 0.761893 16.1018 0 19.6557 0ZM9.69624 21.599V14.1736H11.4292C11.6632 14.1736 11.9082 14.0809 12.1641 13.8954C12.4201 13.71 12.548 13.4561 12.548 13.1336C12.548 12.8111 12.431 12.541 12.1971 12.3233C11.963 12.1056 11.7364 11.9968 11.517 11.9968H5.81334C5.56471 11.9968 5.33072 12.0774 5.11134 12.2387C4.89198 12.3999 4.78229 12.666 4.78229 13.0368C4.78229 13.4077 4.89929 13.6899 5.13328 13.8834C5.36728 14.0769 5.63052 14.1736 5.92302 14.1736H7.65602V21.599C7.65602 22.0021 7.74381 22.3327 7.91929 22.5907C8.09477 22.8486 8.34338 22.9777 8.66512 22.9777C8.98693 22.9777 9.23919 22.8326 9.42196 22.5423C9.60481 22.252 9.69624 21.9377 9.69624 21.599ZM19.195 22.9777C19.7361 22.752 19.9043 22.1795 19.6996 21.2604C19.641 21.0508 19.2278 19.7971 18.4601 17.4993C17.6923 15.2015 17.2499 13.8914 17.1329 13.5689C16.738 12.5208 16.1969 11.9968 15.5096 11.9968C14.7636 11.9968 14.186 12.5208 13.7765 13.5689C13.6595 13.843 13.2134 15.1774 12.4383 17.5719C11.6632 19.9664 11.261 21.1959 11.2318 21.2604C11.1294 21.4055 11.1038 21.6716 11.155 22.0586C11.2062 22.4456 11.3635 22.7116 11.6266 22.8568C11.9191 23.0019 12.2044 23.018 12.4822 22.9052C12.7601 22.7922 12.9502 22.6229 13.0525 22.3972L13.5791 20.8009H17.3962C17.557 21.3813 17.674 21.7603 17.7471 21.9377C17.8202 22.0989 17.9007 22.2602 17.9884 22.4214C18.0761 22.5827 18.237 22.7398 18.4711 22.893C18.705 23.0462 18.9464 23.0745 19.195 22.9777ZM25.0961 22.9777C25.4031 22.9777 25.6847 22.8728 25.9406 22.6633C26.1966 22.4537 26.3245 22.1714 26.3245 21.8167C26.3245 21.462 26.2075 21.1838 25.9736 20.9822C25.7395 20.7807 25.447 20.6799 25.0961 20.6799H22.661V13.3754C22.661 13.0368 22.5696 12.7224 22.3868 12.4321C22.204 12.1419 21.9518 11.9968 21.63 11.9968C21.3082 11.9968 21.0596 12.1258 20.8841 12.3837C20.7086 12.6418 20.6209 12.9723 20.6209 13.3754V21.599C20.6209 22.0021 20.7086 22.3327 20.8841 22.5907C21.0596 22.8486 21.3082 22.9777 21.63 22.9777C21.6446 22.9777 21.6702 22.9736 21.7068 22.9656C21.7433 22.9575 21.7689 22.9535 21.7836 22.9535C21.7981 22.9535 21.8237 22.9575 21.8603 22.9656C21.8969 22.9736 21.9225 22.9777 21.9371 22.9777H25.0961ZM33.7392 22.8084C33.9879 22.5503 34.1122 22.2561 34.1122 21.9255C34.1122 21.595 34.0172 21.3007 33.827 21.0428C33.7392 20.8976 32.8179 19.5351 31.0629 16.9551C31.9112 16.0037 32.7667 15.0524 33.6296 14.1011C33.849 13.8592 33.9842 13.5729 34.0354 13.2424C34.0866 12.9119 34.0025 12.6014 33.7831 12.3112C33.5345 12.0532 33.2676 11.9484 32.9824 11.9968C32.6973 12.0452 32.4304 12.2064 32.1817 12.4805C32.1379 12.5289 31.9477 12.7425 31.6114 13.1214C31.275 13.5004 30.8399 13.9882 30.3061 14.5848C29.7723 15.1814 29.3006 15.7135 28.8912 16.1812V13.3754C28.8912 13.0368 28.7998 12.7224 28.6169 12.4321C28.4341 12.1419 28.1819 11.9968 27.8602 11.9968C27.5383 11.9968 27.2897 12.1258 27.1143 12.3837C26.9388 12.6418 26.851 12.9723 26.851 13.3754V21.599C26.851 22.0021 26.9388 22.3327 27.1143 22.5907C27.2897 22.8486 27.5383 22.9777 27.8602 22.9777C28.1819 22.9777 28.4341 22.8326 28.6169 22.5423C28.7998 22.252 28.8912 21.9377 28.8912 21.599V19.398C28.9497 19.3335 29.0593 19.2086 29.2202 19.0231C29.3811 18.8377 29.5127 18.6885 29.6151 18.5756C30.5804 20.0269 31.4432 21.3087 32.2037 22.4214C32.4084 22.7278 32.6461 22.9253 32.9166 23.014C33.1872 23.1027 33.4614 23.0341 33.7392 22.8084ZM14.1714 18.624L15.5096 14.2945L16.8257 18.624H14.1714Z" fill="#351C00"/>
</svg>
