<svg width="35" height="37" viewBox="0 0 35 37" fill="none" xmlns="http://www.w3.org/2000/svg">
<path d="M31.2749 36.5555V35.2415C31.2749 31.1442 24.3924 29.1748 17.6055 29.184C10.8621 29.1901 3.93616 30.9034 3.93616 35.2415V36.5555H31.2749Z" fill="black"/>
<path d="M17.3187 26.2332H14.6885V29.2756C14.6885 30.6505 15.7602 31.7663 17.0811 31.7663H17.5591C18.88 31.7663 19.9517 30.6505 19.9517 29.2756V26.2332H17.3187Z" fill="#7A4C32"/>
<path d="M25.2352 14.1454H23.1004H11.5369H9.40202C7.69588 14.1454 6.29968 15.7124 6.29968 17.6239C6.29968 19.5353 7.69588 21.1023 9.40202 21.1023H11.5369H23.0975H25.2323C26.9385 21.1023 28.3347 19.5353 28.3347 17.6239C28.3347 15.7124 26.9414 14.1454 25.2352 14.1454Z" fill="#7A4C32"/>
<path d="M17.3188 2.14618C12.2786 2.14618 7.60913 7.81959 7.60913 15.9867C7.60913 24.1082 12.4205 28.1231 17.3188 28.1231C22.217 28.1231 27.0284 24.1051 27.0284 15.9837C27.0284 7.81959 22.359 2.14618 17.3188 2.14618Z" fill="#A56C43"/>
<path d="M12.0409 8.92315L20.0965 7.27386L15.6617 13.4015L18.5845 12.7552L9.82495 23.8551L10.3695 19.206L8.16516 20.1572L12.0409 8.92315Z" fill="url(#paint0_linear_323_87)"/>
<path d="M12.5565 18.255C13.3452 18.255 13.9845 17.5589 13.9845 16.7002C13.9845 15.8415 13.3452 15.1454 12.5565 15.1454C11.7678 15.1454 11.1284 15.8415 11.1284 16.7002C11.1284 17.5589 11.7678 18.255 12.5565 18.255Z" fill="#42312C"/>
<path d="M22.0808 18.255C22.8695 18.255 23.5088 17.5589 23.5088 16.7002C23.5088 15.8415 22.8695 15.1454 22.0808 15.1454C21.2921 15.1454 20.6527 15.8415 20.6527 16.7002C20.6527 17.5589 21.2921 18.255 22.0808 18.255Z" fill="#42312C"/>
<path d="M10.3638 14.2371C11.2299 12.9476 13.1967 12.8256 14.3235 13.7859C14.5031 13.9384 14.7407 14.1518 14.8102 14.3895C14.926 14.7767 14.5726 15.0785 14.2279 14.9871C14.0078 14.9291 13.8021 14.8042 13.5849 14.734C13.2431 14.6243 12.9013 14.5725 12.545 14.5664C12.0062 14.5572 11.6615 14.6334 11.1777 14.8468C10.9721 14.9383 10.8041 15.0755 10.5694 14.9718C10.303 14.8529 10.2016 14.4901 10.3638 14.2371Z" fill="#42312C"/>
<path d="M23.7059 14.9685C23.6219 14.9289 23.5407 14.8771 23.4567 14.8435C22.9266 14.6301 22.5848 14.5783 22.0895 14.5631C21.6318 14.5478 21.3248 14.5935 20.9193 14.7734C20.6904 14.8771 20.3863 15.0722 20.1256 14.9899C19.7432 14.8679 19.7548 14.4289 19.9634 14.1484C20.2125 13.8192 20.5543 13.5692 20.9164 13.4046C21.7564 13.0205 22.7818 13.0753 23.5726 13.5723C23.8304 13.7338 24.1114 13.9564 24.2678 14.2369C24.4966 14.6332 24.1519 15.1606 23.7059 14.9685Z" fill="#42312C"/>
<path d="M18.4368 19.5201C18.405 19.5079 18.376 19.4987 18.3441 19.4957H16.2933C16.2614 19.4987 16.2296 19.5079 16.2006 19.5201C16.0152 19.5993 15.9138 19.8005 16.0007 20.017C16.0876 20.2334 16.4961 20.837 17.3187 20.837C18.1414 20.837 18.5498 20.2304 18.6367 20.017C18.7236 19.8005 18.6222 19.5993 18.4368 19.5201Z" fill="#875334"/>
<path d="M19.7577 21.9833C18.8366 22.5595 15.8096 22.5595 14.8884 21.9833C14.3583 21.651 13.8167 22.1601 14.0368 22.6662C14.254 23.1631 15.9023 24.3185 17.3303 24.3185C18.7584 24.3185 20.3863 23.1631 20.6035 22.6662C20.8208 22.1601 20.2878 21.651 19.7577 21.9833Z" fill="#473530"/>
<path d="M31.8196 25.2331L31.8456 25.2301C32.3439 25.285 32.7929 24.9649 32.8508 24.5106L33.0912 22.6754C33.1491 22.2211 32.79 21.8065 32.2946 21.7517C31.7964 21.6968 31.3474 22.0169 31.2895 22.4711L31.0491 24.3064C30.9911 24.7606 31.3213 25.1783 31.8196 25.2331Z" fill="url(#paint1_linear_323_87)"/>
<path d="M31.3387 29.2755C29.899 29.3212 28.3174 28.9981 27.8395 27.4647C27.5846 26.6446 27.6483 25.8032 27.8105 25.0166C27.9901 24.1447 28.0046 23.7027 27.9467 23.0137C27.9061 22.5077 27.602 18.5567 27.602 18.5567C27.602 18.5567 27.4166 17.8372 28.0307 17.6299C28.7056 17.3586 28.9547 18.1421 28.9547 18.1421L29.6847 23.5808L32.8652 23.9618C32.8652 23.9618 32.9898 23.7454 33.0593 23.2027C33.0911 22.971 33.0506 22.5412 33.0854 22.2668C33.2505 20.9986 33.4532 19.4652 33.4735 19.3371C33.5083 19.1176 33.7342 18.7945 34.1658 18.8585C34.6003 18.9195 34.7133 19.2579 34.693 19.4774C34.6727 19.6999 34.5163 21.4772 34.5163 21.4772C34.47 22.3308 34.4236 23.2729 34.4989 24.1234L34.5598 24.8063C34.6582 25.9068 34.5047 27.0622 34.0499 27.9219C33.5807 28.8213 32.7783 29.2298 31.3387 29.2755Z" fill="url(#paint2_linear_323_87)"/>
<path d="M30.3015 25.3002C30.8027 25.3124 31.2256 24.9527 31.2487 24.4954L31.3472 22.3888C31.3675 21.9315 30.9823 21.5505 30.4811 21.5352C29.98 21.523 29.5571 21.8828 29.5339 22.34L29.4354 24.4466C29.4123 24.9069 29.8004 25.288 30.3015 25.3002Z" fill="url(#paint3_linear_323_87)"/>
<path d="M31.8166 24.0107C31.2575 23.907 30.5652 23.7759 29.9019 23.7393C29.8092 23.7332 29.7165 23.7302 29.6238 23.7271C28.7519 23.7119 28.1175 24.2241 27.8018 25.3734C27.7902 25.41 27.7815 25.4465 27.7699 25.4862C27.7525 25.5532 27.7352 25.6264 27.7207 25.7057V25.7148C27.7004 25.8185 27.6801 25.9252 27.6656 26.041C27.6106 26.4221 27.6454 26.7879 27.7294 27.0836C27.9582 28.1384 28.6621 28.6384 28.6621 28.6384C28.6621 28.6384 30.4841 29.5987 30.9012 28.6384C31.3183 27.6781 30.7129 26.3367 30.7129 26.3367L29.8671 25.8093C30.0438 25.5807 30.3016 25.4831 30.8085 25.5136C30.9678 25.5228 31.1619 25.5441 31.3995 25.5685C31.4226 25.5715 31.7123 25.6051 31.7326 25.6051C32.0541 25.6234 32.3061 25.5197 32.5031 25.288C32.758 24.9862 32.7261 24.474 32.7464 24.2302C32.5176 24.2058 32.1265 24.0686 31.8166 24.0107Z" fill="url(#paint4_linear_323_87)"/>
<path d="M14.5408 36.5555L14.2888 29.9736C13.301 30.4035 12.3046 30.6138 11.2589 30.6138C9.54983 30.6138 8.04936 30.0346 6.84724 29.5682C6.02459 29.2511 5.31201 28.9737 4.77612 28.9737C4.12147 28.9737 3.85498 29.5743 3.85498 31.0498V36.5555H14.5408Z" fill="url(#paint5_linear_323_87)"/>
<path d="M31.1736 36.5555V31.0498C31.1736 29.5773 30.9071 28.9737 30.2524 28.9737C29.7223 28.9737 28.9808 29.242 28.1263 29.556C26.8488 30.0224 25.2586 30.6016 23.48 30.6016C22.4024 30.6016 21.3886 30.3943 20.3979 29.9706L20.4327 36.5555H31.1736Z" fill="url(#paint6_linear_323_87)"/>
<path d="M15.572 36.5555L15.0709 32.9155L5.48584 34.8117L6.67637 36.5555H15.572Z" fill="url(#paint7_linear_323_87)"/>
<path d="M10.2625 36.5556H15.5547L14.6973 28.3152L6.12024 30.5102L9.83667 35.9123L10.2625 36.5556Z" fill="url(#paint8_linear_323_87)"/>
<path d="M28.0016 36.5555L29.1661 34.8483L19.4506 32.9155L18.9756 36.5555H28.0016Z" fill="url(#paint9_linear_323_87)"/>
<path d="M24.01 36.5556L24.7457 35.4428L28.4593 30.0407L19.9575 28.3152L18.9958 36.5556H24.01Z" fill="url(#paint10_linear_323_87)"/>
<path d="M34.05 36.5555L34.0065 28.6292L27.4253 28.6536L27.4311 36.5555H34.05Z" fill="url(#paint11_linear_323_87)"/>
<path d="M27.6656 32.9339C28.3231 32.9339 28.8562 32.3729 28.8562 31.6809C28.8562 30.9889 28.3231 30.4279 27.6656 30.4279C27.0081 30.4279 26.4751 30.9889 26.4751 31.6809C26.4751 32.3729 27.0081 32.9339 27.6656 32.9339Z" fill="#E6E7E8"/>
<path d="M30.7361 32.9247C31.3936 32.9247 31.9266 32.3637 31.9266 31.6717C31.9266 30.9797 31.3936 30.4188 30.7361 30.4188C30.0786 30.4188 29.5455 30.9797 29.5455 31.6717C29.5455 32.3637 30.0786 32.9247 30.7361 32.9247Z" fill="#00BFA5"/>
<path d="M33.8096 32.9125C34.4671 32.9125 35.0001 32.3515 35.0001 31.6595C35.0001 30.9675 34.4671 30.4066 33.8096 30.4066C33.152 30.4066 32.619 30.9675 32.619 31.6595C32.619 32.3515 33.152 32.9125 33.8096 32.9125Z" fill="#808285"/>
<path d="M17.3187 0C17.3158 0 17.3158 0 17.3129 0C17.31 0 17.31 0 17.3071 0C4.14757 0.073166 6.84437 15.8953 6.84437 15.8953C6.84437 15.8953 7.43529 17.5263 7.70468 18.2458C7.74234 18.3494 7.88717 18.3372 7.91034 18.2305C8.19132 16.9074 9.20226 12.2157 9.71207 10.7889C10.0133 9.94752 10.8418 9.45975 11.6789 9.62132C12.9679 9.86826 15.0246 10.1731 17.2898 10.1731H17.3129C17.3129 10.1731 17.3303 10.1731 17.3361 10.1731C19.6013 10.1731 21.6579 9.86826 22.947 9.62132C23.787 9.45975 24.6154 9.95057 24.9138 10.7889C25.4207 12.2096 26.4259 16.8739 26.7097 18.2153C26.7329 18.325 26.8777 18.3342 26.9154 18.2305L27.7786 15.8923C27.7844 15.8953 30.4812 0.073166 17.3187 0Z" fill="#3C2C23"/>
<path d="M27.7843 15.8953C27.7843 15.8953 30.4812 0.073166 17.3187 0C17.3158 0 17.3158 0 17.3129 0C17.31 0 17.31 0 17.3071 0C17.1014 0 16.9016 0.00609708 16.7046 0.0152428C16.3135 0.0335343 15.9341 0.0640201 15.5691 0.109749C15.5662 0.109749 15.5604 0.109749 15.5575 0.109749C15.5314 0.112797 15.5083 0.118895 15.4822 0.121943C4.40532 1.58831 6.84432 15.8953 6.84432 15.8953L7.70753 18.2366C7.74518 18.3403 7.88712 18.3311 7.91029 18.2214C8.19417 16.883 9.20221 12.2126 9.71202 10.792C10.0133 9.95057 10.8417 9.4628 11.6789 9.62437C12.9679 9.87131 15.0245 10.1762 17.2897 10.1762H17.3129C17.3129 10.1762 17.3303 10.1762 17.3361 10.1762C19.6013 10.1762 21.6579 9.87131 22.9469 9.62437C23.7869 9.4628 24.6154 9.95362 24.9137 10.792C25.4236 12.2187 26.4345 16.9196 26.7126 18.2366C26.7358 18.3464 26.8777 18.3555 26.9153 18.2519C27.1905 17.5324 27.7843 15.8953 27.7843 15.8953Z" fill="url(#paint12_radial_323_87)"/>
<path d="M8.75037 25.5684L2.16913 28.4311L2.07064 28.2299C2.05037 28.2481 2.03009 28.2664 2.00402 28.2817L1.64194 28.5042V36.5555H0.735279V29.053C0.497752 29.1658 0.216775 29.0804 0.0777353 28.8426C-0.0757882 28.5835 0.00531848 28.239 0.257329 28.0835L1.47972 27.3336C1.52317 27.3061 1.56952 27.2909 1.61587 27.2787L1.43338 26.8946L7.57142 23.0137C7.55983 23.1265 7.55694 23.2393 7.55983 23.3552C7.5917 24.2911 8.05806 25.099 8.75037 25.5684Z" fill="#5D5F61"/>
<path d="M10.1581 25.6965C11.4332 25.6965 12.4668 24.6087 12.4668 23.2668C12.4668 21.9249 11.4332 20.8371 10.1581 20.8371C8.8831 20.8371 7.84949 21.9249 7.84949 23.2668C7.84949 24.6087 8.8831 25.6965 10.1581 25.6965Z" fill="#434444"/>
<path d="M9.09222 25.4191L8.75041 25.5685C8.05811 25.099 7.59175 24.2911 7.55988 23.3552C7.55699 23.2394 7.55988 23.1266 7.57147 23.0138L7.8901 22.8156C7.85824 22.9863 7.84376 23.1662 7.84955 23.3461C7.87852 24.2545 8.37674 25.0289 9.09222 25.4191Z" fill="#727475"/>
<path d="M11.2185 25.4282C11.0968 25.4952 10.9694 25.5471 10.839 25.5897C10.8361 25.5867 10.8361 25.5867 10.8361 25.5867C10.7231 25.5227 10.6073 25.4404 10.4914 25.3398C10.0859 24.9953 9.69483 24.477 9.37909 23.8703C9.35302 23.8185 9.32405 23.7667 9.30088 23.7149C8.86927 22.8308 8.68968 21.9589 8.7563 21.3309C8.86058 21.2455 8.97355 21.1723 9.09232 21.1053C9.35591 20.9589 9.65427 20.8705 9.96711 20.8431C10.0048 20.84 10.0453 20.837 10.0859 20.8339C10.222 20.8278 10.3582 20.837 10.4914 20.8583C11.5806 21.0199 12.4322 21.9863 12.4698 23.1844C12.4843 23.6264 12.3858 24.0441 12.1975 24.4069C12.1164 24.5746 12.0122 24.73 11.8934 24.8672C11.7022 25.0959 11.4763 25.2879 11.2185 25.4282Z" fill="#434444"/>
<path d="M10.6737 25.1051C10.2652 24.7606 9.8684 24.218 9.56135 23.5778C9.05733 22.5382 8.93857 21.6084 9.09499 21.1084C8.97623 21.1724 8.86326 21.2486 8.75898 21.334C8.69235 21.959 8.87484 22.8308 9.30355 23.718C9.32672 23.7698 9.35569 23.8247 9.38176 23.8735C9.6975 24.4801 10.0885 24.9984 10.4941 25.3429C10.6128 25.4404 10.7287 25.5258 10.8388 25.5898C10.8388 25.5898 10.8388 25.5898 10.8417 25.5929C10.972 25.5502 11.0995 25.4984 11.2211 25.4313C11.0531 25.3764 10.8678 25.2697 10.6737 25.1051Z" fill="#5D5F61"/>
<path d="M33.0736 22.4223C33.0215 22.8339 32.6826 24.0106 32.6826 24.0106C32.2481 23.8247 31.8512 23.6936 31.4891 23.6021C31.4544 23.3308 31.3704 22.6723 31.3385 22.2791C31.2661 22.6022 31.0778 23.2485 31.0025 23.5015C30.4869 23.4162 30.0524 23.4223 29.6903 23.4832C29.6671 23.2729 29.5802 22.5473 29.5339 22.34C29.4991 22.5229 29.4702 22.9223 29.4354 23.1083C29.4035 23.279 29.363 23.465 29.3427 23.5595C28.9633 23.6692 28.6852 23.8369 28.4853 23.9954C28.3318 24.1052 28.1985 24.2362 28.1029 24.4039C28.0856 24.4314 28.074 24.4496 28.074 24.4496C28.3521 24.1844 28.7373 24.0381 29.0965 23.9466C30.0843 23.6966 31.3733 23.7911 32.3031 24.224C32.6855 24.4039 32.7608 24.7118 32.5088 25.0563C32.1409 25.5654 31.5094 25.3337 31.0025 25.288C30.5622 25.2484 29.8323 25.3063 29.7019 25.8764C30.6868 26.038 31.0373 27.1751 31.0112 28.0988C31.3762 27.2452 31.1387 26.3215 30.2668 25.7209C30.8258 25.3978 32.6739 26.3398 32.952 24.8399C33.0736 24.1661 33.091 22.7394 33.0736 22.4223Z" fill="#875334"/>
<defs>
<linearGradient id="paint0_linear_323_87" x1="14.1307" y1="10.0262" x2="14.1307" y2="21.022" gradientUnits="userSpaceOnUse">
<stop stop-color="#1DE9B6"/>
<stop offset="0.1892" stop-color="#19DDAF"/>
<stop offset="0.5292" stop-color="#10BE9C"/>
<stop offset="0.9781" stop-color="#018C7D"/>
<stop offset="1" stop-color="#00897B"/>
</linearGradient>
<linearGradient id="paint1_linear_323_87" x1="31.0412" y1="23.4916" x2="33.0976" y2="23.4916" gradientUnits="userSpaceOnUse">
<stop offset="0.5" stop-color="#A56C43"/>
<stop offset="1" stop-color="#8D5738"/>
</linearGradient>
<linearGradient id="paint2_linear_323_87" x1="27.5755" y1="23.4268" x2="34.6986" y2="23.4268" gradientUnits="userSpaceOnUse">
<stop offset="0.5" stop-color="#A56C43"/>
<stop offset="1" stop-color="#8D5738"/>
</linearGradient>
<linearGradient id="paint3_linear_323_87" x1="29.4103" y1="23.4429" x2="31.3704" y2="23.401" gradientUnits="userSpaceOnUse">
<stop offset="0.5" stop-color="#A56C43"/>
<stop offset="1" stop-color="#8D5738"/>
</linearGradient>
<linearGradient id="paint4_linear_323_87" x1="30.3124" y1="24.3534" x2="29.6719" y2="29.0384" gradientUnits="userSpaceOnUse">
<stop offset="0.5" stop-color="#A56C43"/>
<stop offset="1" stop-color="#8D5738"/>
</linearGradient>
<linearGradient id="paint5_linear_323_87" x1="9.1989" y1="30.0536" x2="9.1989" y2="37.8883" gradientUnits="userSpaceOnUse">
<stop offset="0.004" stop-color="#666666"/>
<stop offset="0.0118" stop-color="#656565"/>
<stop offset="0.2735" stop-color="#484747"/>
<stop offset="0.5297" stop-color="#343131"/>
<stop offset="0.7756" stop-color="#272324"/>
<stop offset="1" stop-color="#231F20"/>
</linearGradient>
<linearGradient id="paint6_linear_323_87" x1="25.7862" y1="30.0536" x2="25.7862" y2="37.8883" gradientUnits="userSpaceOnUse">
<stop offset="0.004" stop-color="#666666"/>
<stop offset="0.0118" stop-color="#656565"/>
<stop offset="0.2735" stop-color="#484747"/>
<stop offset="0.5297" stop-color="#343131"/>
<stop offset="0.7756" stop-color="#272324"/>
<stop offset="1" stop-color="#231F20"/>
</linearGradient>
<linearGradient id="paint7_linear_323_87" x1="10.5289" y1="33.6268" x2="10.5289" y2="37.796" gradientUnits="userSpaceOnUse">
<stop offset="0.004" stop-color="#666666"/>
<stop offset="0.2657" stop-color="#717273"/>
<stop offset="0.6493" stop-color="#7C7E81"/>
<stop offset="1" stop-color="#808285"/>
</linearGradient>
<linearGradient id="paint8_linear_323_87" x1="10.838" y1="29.0032" x2="10.838" y2="37.3874" gradientUnits="userSpaceOnUse">
<stop stop-color="#00BFA5"/>
<stop offset="0.2747" stop-color="#00BBA2"/>
<stop offset="0.5448" stop-color="#00AF99"/>
<stop offset="0.8122" stop-color="#009C89"/>
<stop offset="1" stop-color="#00897B"/>
</linearGradient>
<linearGradient id="paint9_linear_323_87" x1="24.0711" y1="33.6268" x2="24.0711" y2="37.796" gradientUnits="userSpaceOnUse">
<stop offset="0.004" stop-color="#666666"/>
<stop offset="0.2657" stop-color="#717273"/>
<stop offset="0.6493" stop-color="#7C7E81"/>
<stop offset="1" stop-color="#808285"/>
</linearGradient>
<linearGradient id="paint10_linear_323_87" x1="23.728" y1="29.0032" x2="23.728" y2="37.3874" gradientUnits="userSpaceOnUse">
<stop stop-color="#00BFA5"/>
<stop offset="0.2747" stop-color="#00BBA2"/>
<stop offset="0.5448" stop-color="#00AF99"/>
<stop offset="0.8122" stop-color="#009C89"/>
<stop offset="1" stop-color="#00897B"/>
</linearGradient>
<linearGradient id="paint11_linear_323_87" x1="30.7378" y1="28.653" x2="30.7378" y2="40.3611" gradientUnits="userSpaceOnUse">
<stop offset="0.004" stop-color="#666666"/>
<stop offset="0.6314" stop-color="#393637"/>
<stop offset="1" stop-color="#231F20"/>
</linearGradient>
<radialGradient id="paint12_radial_323_87" cx="0" cy="0" r="1" gradientUnits="userSpaceOnUse" gradientTransform="translate(17.3139 13.1296) scale(11.0341 13.1016)">
<stop offset="0.7945" stop-color="#554138" stop-opacity="0"/>
<stop offset="1" stop-color="#554138"/>
</radialGradient>
</defs>
</svg>
