<svg width="35" height="40" viewBox="0 0 35 40" fill="none" xmlns="http://www.w3.org/2000/svg">
<path d="M18.4833 33.6842H3.33333C2.44928 33.6842 1.60143 33.2406 0.976311 32.451C0.351189 31.6614 0 30.5904 0 29.4737V4.21053C0 3.09383 0.351189 2.02286 0.976311 1.23323C1.60143 0.443608 2.44928 0 3.33333 0H30C31.85 0 33.3333 1.87368 33.3333 4.21053V20.6526C31.8667 19.5789 30.15 18.9474 28.3333 18.9474C22.8167 18.9474 18.3333 24.6105 18.3333 31.5789C18.3333 32.2947 18.4 32.9895 18.4833 33.6842ZM26.6667 23.1579V29.4737H21.6667V33.6842H26.6667V40H30V33.6842H35V29.4737H30V23.1579H26.6667Z" fill="black"/>
</svg>
