<svg width="34" height="31" viewBox="0 0 34 31" fill="none" xmlns="http://www.w3.org/2000/svg">
<path d="M3.66665 3.66668H8.66665L12 0.333344H22L25.3333 3.66668H30.3333C31.2174 3.66668 32.0652 4.01787 32.6903 4.64299C33.3155 5.26811 33.6666 6.11596 33.6666 7.00001V27C33.6666 27.8841 33.3155 28.7319 32.6903 29.357C32.0652 29.9822 31.2174 30.3333 30.3333 30.3333H3.66665C2.78259 30.3333 1.93474 29.9822 1.30962 29.357C0.684502 28.7319 0.333313 27.8841 0.333313 27V7.00001C0.333313 6.11596 0.684502 5.26811 1.30962 4.64299C1.93474 4.01787 2.78259 3.66668 3.66665 3.66668ZM17 8.66668C14.7898 8.66668 12.6702 9.54465 11.1074 11.1075C9.54462 12.6703 8.66665 14.7899 8.66665 17C8.66665 19.2101 9.54462 21.3298 11.1074 22.8926C12.6702 24.4554 14.7898 25.3333 17 25.3333C19.2101 25.3333 21.3297 24.4554 22.8925 22.8926C24.4553 21.3298 25.3333 19.2101 25.3333 17C25.3333 14.7899 24.4553 12.6703 22.8925 11.1075C21.3297 9.54465 19.2101 8.66668 17 8.66668ZM17 12C18.3261 12 19.5978 12.5268 20.5355 13.4645C21.4732 14.4022 22 15.6739 22 17C22 18.3261 21.4732 19.5979 20.5355 20.5355C19.5978 21.4732 18.3261 22 17 22C15.6739 22 14.4021 21.4732 13.4644 20.5355C12.5268 19.5979 12 18.3261 12 17C12 15.6739 12.5268 14.4022 13.4644 13.4645C14.4021 12.5268 15.6739 12 17 12Z" fill="black"/>
</svg>
