<svg width="30" height="30" viewBox="0 0 30 30" fill="none" xmlns="http://www.w3.org/2000/svg">
<path d="M15 0C16.9891 0 18.8968 0.790176 20.3033 2.1967C21.7098 3.60322 22.5 5.51088 22.5 7.5C22.5 9.48912 21.7098 11.3968 20.3033 12.8033C18.8968 14.2098 16.9891 15 15 15C13.0109 15 11.1032 14.2098 9.6967 12.8033C8.29018 11.3968 7.5 9.48912 7.5 7.5C7.5 5.51088 8.29018 3.60322 9.6967 2.1967C11.1032 0.790176 13.0109 0 15 0ZM15 3.75C14.0054 3.75 13.0516 4.14509 12.3484 4.84835C11.6451 5.55161 11.25 6.50544 11.25 7.5C11.25 8.49456 11.6451 9.44839 12.3484 10.1516C13.0516 10.8549 14.0054 11.25 15 11.25C15.9946 11.25 16.9484 10.8549 17.6516 10.1516C18.3549 9.44839 18.75 8.49456 18.75 7.5C18.75 6.50544 18.3549 5.55161 17.6516 4.84835C16.9484 4.14509 15.9946 3.75 15 3.75ZM15 16.875C20.0063 16.875 30 19.3687 30 24.375V30H0V24.375C0 19.3687 9.99375 16.875 15 16.875ZM15 20.4375C9.43125 20.4375 3.5625 23.175 3.5625 24.375V26.4375H26.4375V24.375C26.4375 23.175 20.5688 20.4375 15 20.4375Z" fill="black"/>
</svg>
