<svg width="34" height="31" viewBox="0 0 34 31" fill="none" xmlns="http://www.w3.org/2000/svg">
<path d="M30.3333 3.66671H25.05L22 0.333374H12L8.95001 3.66671H3.66668C2.78262 3.66671 1.93478 4.0179 1.30965 4.64302C0.684533 5.26814 0.333344 6.11599 0.333344 7.00004V27C0.333344 27.8841 0.684533 28.7319 1.30965 29.3571C1.93478 29.9822 2.78262 30.3334 3.66668 30.3334H30.3333C31.2174 30.3334 32.0652 29.9822 32.6904 29.3571C33.3155 28.7319 33.6667 27.8841 33.6667 27V7.00004C33.6667 6.11599 33.3155 5.26814 32.6904 4.64302C32.0652 4.0179 31.2174 3.66671 30.3333 3.66671ZM30.3333 27H3.66668V7.00004H10.4167L13.4667 3.66671H20.5333L23.5833 7.00004H30.3333V27ZM17 8.66671C14.7899 8.66671 12.6703 9.54468 11.1075 11.1075C9.54465 12.6703 8.66668 14.7899 8.66668 17C8.66668 19.2102 9.54465 21.3298 11.1075 22.8926C12.6703 24.4554 14.7899 25.3334 17 25.3334C19.2101 25.3334 21.3298 24.4554 22.8926 22.8926C24.4554 21.3298 25.3333 19.2102 25.3333 17C25.3333 14.7899 24.4554 12.6703 22.8926 11.1075C21.3298 9.54468 19.2101 8.66671 17 8.66671ZM17 22C15.6739 22 14.4022 21.4733 13.4645 20.5356C12.5268 19.5979 12 18.3261 12 17C12 15.674 12.5268 14.4022 13.4645 13.4645C14.4022 12.5268 15.6739 12 17 12C18.3261 12 19.5979 12.5268 20.5355 13.4645C21.4732 14.4022 22 15.674 22 17C22 18.3261 21.4732 19.5979 20.5355 20.5356C19.5979 21.4733 18.3261 22 17 22Z" fill="black"/>
</svg>
