<svg width="47" height="51" viewBox="0 0 47 51" fill="none" xmlns="http://www.w3.org/2000/svg">
<path d="M44.5698 21.502L7.76759 0.690284C6.9958 0.255295 6.11299 0.0174138 5.20927 0.000920217C4.30554 -0.0155734 3.41327 0.189911 2.62351 0.596401C1.83375 1.00289 1.17479 1.59583 0.713886 2.3147C0.252982 3.03357 0.00663935 3.85262 0 4.68827V46.3117C0.00663935 47.1474 0.252982 47.9664 0.713886 48.6853C1.17479 49.4042 1.83375 49.9971 2.62351 50.4036C3.41327 50.8101 4.30554 51.0156 5.20927 50.9991C6.11299 50.9826 6.9958 50.7447 7.76759 50.3097L44.5698 29.498C45.3119 29.0804 45.9252 28.4932 46.3508 27.793C46.7764 27.0928 47 26.3032 47 25.5C47 24.6968 46.7764 23.9072 46.3508 23.207C45.9252 22.5068 45.3119 21.9196 44.5698 21.502ZM6.13029 44.5926V6.40743L39.8878 25.5L6.13029 44.5926Z" fill="black"/>
</svg>
