<svg width="145" height="135" viewBox="0 0 145 135" fill="none" xmlns="http://www.w3.org/2000/svg">
<path d="M129.459 135V130.148C129.459 115.016 100.97 107.743 72.8761 107.777C44.9623 107.8 16.2931 114.127 16.2931 130.148V135H129.459Z" fill="black"/>
<path d="M71.6889 96.8789H60.8016V108.115C60.8016 113.192 65.238 117.313 70.7057 117.313H72.6841C78.1518 117.313 82.5882 113.192 82.5882 108.115V96.8789H71.6889Z" fill="#7A4C32"/>
<path d="M104.459 52.2392H95.622H47.7561H38.9191C31.8567 52.2392 26.0773 58.026 26.0773 65.0851C26.0773 72.1441 31.8567 77.931 38.9191 77.931H47.7561H95.61H104.447C111.509 77.931 117.289 72.1441 117.289 65.0851C117.289 58.026 111.521 52.2392 104.459 52.2392Z" fill="#7A4C32"/>
<path d="M71.689 7.92596C50.8256 7.92596 31.4969 28.8779 31.4969 59.0393C31.4969 89.0318 51.4131 103.859 71.689 103.859C91.9648 103.859 111.881 89.0205 111.881 59.028C111.881 28.8779 92.5524 7.92596 71.689 7.92596Z" fill="#A56C43"/>
<path d="M49.8423 32.9534L83.1878 26.8626L64.8304 49.4921L76.9287 47.1053L40.6696 88.0973L42.9238 70.9281L33.7991 74.4408L49.8423 32.9534Z" fill="url(#paint0_linear_189_313)"/>
<path d="M51.9767 67.4156C55.2414 67.4156 57.888 64.8449 57.888 61.6738C57.888 58.5026 55.2414 55.9319 51.9767 55.9319C48.712 55.9319 46.0654 58.5026 46.0654 61.6738C46.0654 64.8449 48.712 67.4156 51.9767 67.4156Z" fill="#42312C"/>
<path d="M91.4013 67.4156C94.666 67.4156 97.3126 64.8449 97.3126 61.6738C97.3126 58.5026 94.666 55.9319 91.4013 55.9319C88.1366 55.9319 85.49 58.5026 85.49 61.6738C85.49 64.8449 88.1366 67.4156 91.4013 67.4156Z" fill="#42312C"/>
<path d="M42.9 52.5769C46.4851 47.8145 54.6266 47.3642 59.2909 50.9106C60.0343 51.4735 61.0175 52.2616 61.3053 53.1398C61.7849 54.5696 60.3221 55.6842 58.8952 55.3464C57.984 55.1325 57.1326 54.6709 56.2334 54.412C54.8185 54.0067 53.4036 53.8153 51.9288 53.7928C49.6986 53.759 48.2717 54.0405 46.2693 54.8285C45.418 55.1663 44.7225 55.6729 43.7513 55.2901C42.6482 54.8511 42.2285 53.5113 42.9 52.5769Z" fill="#42312C"/>
<path d="M98.1279 55.2789C97.7802 55.1326 97.4445 54.9412 97.0968 54.8173C94.9025 54.0293 93.4876 53.8379 91.4373 53.7816C89.5428 53.7253 88.2718 53.8941 86.5931 54.5584C85.6459 54.9412 84.3869 55.6617 83.3077 55.3577C81.725 54.9074 81.773 53.2862 82.6363 52.2504C83.6674 51.0345 85.0823 50.1113 86.5811 49.5034C90.0584 48.0848 94.303 48.2874 97.5764 50.1226C98.6435 50.7193 99.8066 51.5411 100.454 52.5769C101.401 54.0405 99.9745 55.9882 98.1279 55.2789Z" fill="#42312C"/>
<path d="M76.3173 72.0877C76.1855 72.0427 76.0655 72.0089 75.9337 71.9977H67.4444C67.3125 72.0089 67.1806 72.0427 67.0607 72.0877C66.2933 72.3805 65.8737 73.1235 66.2334 73.9229C66.5931 74.7222 68.2837 76.9514 71.689 76.9514C75.0943 76.9514 76.785 74.711 77.1447 73.9229C77.5044 73.1235 77.0847 72.3805 76.3173 72.0877Z" fill="#875334"/>
<path d="M81.7849 81.1847C77.972 83.3126 65.442 83.3126 61.629 81.1847C59.4347 79.9575 57.1925 81.8377 58.1038 83.7066C59.0031 85.5417 65.8257 89.8087 71.7369 89.8087C77.6482 89.8087 84.3869 85.5417 85.2862 83.7066C86.1854 81.8377 83.9792 79.9575 81.7849 81.1847Z" fill="#473530"/>
<path d="M131.713 93.1861L131.821 93.1749C133.883 93.3775 135.742 92.1954 135.982 90.5179L136.977 83.7403C137.217 82.0628 135.73 80.5317 133.68 80.329C131.617 80.1263 129.759 81.3085 129.519 82.986L128.524 89.7636C128.284 91.4411 129.651 92.9835 131.713 93.1861Z" fill="url(#paint1_linear_189_313)"/>
<path d="M129.723 108.115C123.764 108.284 117.217 107.09 115.238 101.427C114.183 98.3987 114.447 95.2914 115.118 92.3867C115.862 89.1668 115.922 87.5343 115.682 84.9899C115.514 83.121 114.255 68.5301 114.255 68.5301C114.255 68.5301 113.488 65.8731 116.03 65.1075C118.823 64.1055 119.855 66.9989 119.855 66.9989L122.876 87.084L136.042 88.4913C136.042 88.4913 136.557 87.692 136.845 85.688C136.977 84.8323 136.809 83.2449 136.953 82.2316C137.637 77.5481 138.476 71.8851 138.56 71.4123C138.704 70.6016 139.639 69.4083 141.426 69.6447C143.224 69.8698 143.692 71.1195 143.608 71.9301C143.524 72.752 142.876 79.3157 142.876 79.3157C142.685 82.468 142.493 85.9469 142.804 89.088L143.056 91.6099C143.464 95.6742 142.828 99.9412 140.946 103.116C139.003 106.437 135.682 107.946 129.723 108.115Z" fill="url(#paint2_linear_189_313)"/>
<path d="M125.43 93.4338C127.505 93.4789 129.255 92.1504 129.351 90.4616L129.759 82.682C129.843 80.9933 128.248 79.586 126.174 79.5297C124.099 79.4846 122.349 80.8131 122.253 82.5019L121.845 90.2815C121.749 91.9815 123.356 93.3888 125.43 93.4338Z" fill="url(#paint3_linear_189_313)"/>
<path d="M131.701 88.6715C129.387 88.2888 126.521 87.8046 123.775 87.6695C123.392 87.647 123.008 87.6358 122.624 87.6245C119.015 87.5682 116.389 89.4596 115.082 93.7041C115.034 93.8392 114.998 93.9743 114.95 94.1206C114.879 94.3683 114.807 94.6385 114.747 94.9312V94.965C114.663 95.3478 114.579 95.7418 114.519 96.1697C114.291 97.577 114.435 98.928 114.783 100.02C115.73 103.915 118.644 105.762 118.644 105.762C118.644 105.762 126.186 109.308 127.912 105.762C129.639 102.215 127.133 97.2617 127.133 97.2617L123.632 95.314C124.363 94.4696 125.43 94.1094 127.528 94.222C128.188 94.2557 128.991 94.3345 129.975 94.4246C130.07 94.4359 131.27 94.5597 131.353 94.5597C132.684 94.6273 133.728 94.2445 134.543 93.3888C135.598 92.2742 135.466 90.3828 135.55 89.4822C134.603 89.3921 132.984 88.8855 131.701 88.6715Z" fill="url(#paint4_linear_189_313)"/>
<path d="M60.1901 135L59.147 110.693C55.0582 112.28 50.9335 113.057 46.6049 113.057C39.5306 113.057 33.3195 110.918 28.3435 109.196C24.9382 108.025 21.9885 107 19.7703 107C17.0605 107 15.9573 109.218 15.9573 114.667V135H60.1901Z" fill="url(#paint5_linear_189_313)"/>
<path d="M129.039 135V114.667C129.039 109.229 127.936 107 125.226 107C123.032 107 119.963 107.991 116.425 109.151C111.138 110.873 104.555 113.012 97.1927 113.012C92.7323 113.012 88.5356 112.247 84.4349 110.682L84.5788 135H129.039Z" fill="url(#paint6_linear_189_313)"/>
<path d="M64.4587 135L62.3843 121.557L22.7079 128.56L27.636 135H64.4587Z" fill="url(#paint7_linear_189_313)"/>
<path d="M42.4802 135H64.3868L60.8376 104.568L25.3339 112.674L40.7176 132.624L42.4802 135Z" fill="url(#paint8_linear_189_313)"/>
<path d="M115.91 135L120.73 128.695L80.514 121.557L78.5476 135H115.91Z" fill="url(#paint9_linear_189_313)"/>
<path d="M99.3869 135L102.433 130.891L117.804 110.941L82.6123 104.568L78.6315 135H99.3869Z" fill="url(#paint10_linear_189_313)"/>
<path d="M140.946 135L140.766 105.728L113.524 105.818L113.548 135H140.946Z" fill="url(#paint11_linear_189_313)"/>
<path d="M114.519 121.625C117.241 121.625 119.447 119.553 119.447 116.998C119.447 114.442 117.241 112.37 114.519 112.37C111.797 112.37 109.591 114.442 109.591 116.998C109.591 119.553 111.797 121.625 114.519 121.625Z" fill="#E6E7E8"/>
<path d="M127.229 121.591C129.951 121.591 132.157 119.52 132.157 116.964C132.157 114.408 129.951 112.337 127.229 112.337C124.507 112.337 122.301 114.408 122.301 116.964C122.301 119.52 124.507 121.591 127.229 121.591Z" fill="#00BFA5"/>
<path d="M139.951 121.546C142.672 121.546 144.879 119.474 144.879 116.919C144.879 114.363 142.672 112.292 139.951 112.292C137.229 112.292 135.023 114.363 135.023 116.919C135.023 119.474 137.229 121.546 139.951 121.546Z" fill="#808285"/>
<path d="M71.689 0C71.677 0 71.677 0 71.665 0C71.653 0 71.653 0 71.641 0C17.1684 0.270203 28.3315 58.7015 28.3315 58.7015C28.3315 58.7015 30.7775 64.7248 31.8927 67.3818C32.0485 67.7645 32.6481 67.7195 32.744 67.3255C33.907 62.4393 38.0917 45.1126 40.202 39.8436C41.449 36.7363 44.8783 34.9349 48.3436 35.5316C53.6793 36.4436 62.1925 37.5694 71.5691 37.5694H71.665C71.665 37.5694 71.7369 37.5694 71.7609 37.5694C81.1375 37.5694 89.6507 36.4436 94.9864 35.5316C98.4637 34.9349 101.893 36.7475 103.128 39.8436C105.226 45.09 109.387 62.3155 110.562 67.2692C110.658 67.6745 111.257 67.7083 111.413 67.3255L114.987 58.6903C115.011 58.7015 126.174 0.270203 71.689 0Z" fill="#3C2C23"/>
<path d="M115.01 58.7015C115.01 58.7015 126.174 0.270203 71.689 0C71.677 0 71.677 0 71.665 0C71.653 0 71.653 0 71.641 0C70.7897 0 69.9624 0.0225166 69.147 0.0562919C67.5283 0.123843 65.9575 0.236427 64.4467 0.405304C64.4347 0.405304 64.4108 0.405304 64.3988 0.405304C64.2909 0.416562 64.1949 0.439079 64.087 0.450337C18.2355 5.86565 28.3315 58.7015 28.3315 58.7015L31.9046 67.348C32.0605 67.7308 32.648 67.697 32.744 67.2917C33.919 62.3492 38.0917 45.1013 40.202 39.8549C41.449 36.7476 44.8783 34.9462 48.3436 35.5429C53.6793 36.4548 62.1925 37.5807 71.5691 37.5807H71.665C71.665 37.5807 71.7369 37.5807 71.7609 37.5807C81.1375 37.5807 89.6507 36.4548 94.9864 35.5429C98.4637 34.9462 101.893 36.7588 103.128 39.8549C105.238 45.1238 109.423 62.4843 110.574 67.348C110.67 67.7533 111.257 67.7871 111.413 67.4043C112.552 64.7473 115.01 58.7015 115.01 58.7015Z" fill="url(#paint12_radial_189_313)"/>
<path d="M36.2212 94.4245L8.97889 104.996L8.57121 104.253C8.48728 104.321 8.40335 104.388 8.29543 104.445L6.79662 105.266V135H3.04361V107.293C2.06039 107.709 0.897319 107.394 0.321777 106.516C-0.313717 105.559 0.0220153 104.287 1.06519 103.713L6.12516 100.943C6.30501 100.842 6.49686 100.786 6.68871 100.74L5.93331 99.3219L31.3411 84.9899C31.2931 85.4065 31.2811 85.8231 31.2931 86.2509C31.425 89.7072 33.3555 92.6907 36.2212 94.4245Z" fill="#5D5F61"/>
<path d="M42.0486 94.8973C47.3264 94.8973 51.605 90.88 51.605 85.9243C51.605 80.9687 47.3264 76.9514 42.0486 76.9514C36.7707 76.9514 32.4922 80.9687 32.4922 85.9243C32.4922 90.88 36.7707 94.8973 42.0486 94.8973Z" fill="#434444"/>
<path d="M37.6361 93.8729L36.2212 94.4246C33.3555 92.6908 31.425 89.7073 31.2931 86.2509C31.2812 85.8231 31.2931 85.4065 31.3411 84.99L32.6601 84.2582C32.5282 84.8887 32.4682 85.5529 32.4922 86.2171C32.6121 89.5722 34.6745 92.4318 37.6361 93.8729Z" fill="#727475"/>
<path d="M46.4371 93.9066C45.9335 94.1543 45.4059 94.3457 44.8663 94.5033C44.8543 94.492 44.8543 94.492 44.8543 94.492C44.3867 94.2556 43.9071 93.9516 43.4275 93.5801C41.7488 92.3079 40.1301 90.394 38.8231 88.1535C38.7152 87.9621 38.5953 87.7708 38.4994 87.5794C36.7128 84.3144 35.9694 81.0945 36.2452 78.7753C36.6768 78.46 37.1445 78.1898 37.6361 77.9421C38.7272 77.4017 39.9622 77.0752 41.2572 76.9739C41.4131 76.9627 41.5809 76.9514 41.7488 76.9401C42.3124 76.9176 42.8759 76.9514 43.4275 77.0302C47.9359 77.6269 51.4611 81.1958 51.6169 85.6204C51.6769 87.2529 51.2692 88.7953 50.4898 90.135C50.1541 90.7542 49.7225 91.3284 49.2308 91.835C48.4395 92.6794 47.5042 93.3887 46.4371 93.9066Z" fill="#434444"/>
<path d="M44.1828 92.7133C42.4922 91.4411 40.8495 89.4371 39.5785 87.0728C37.4921 83.2337 37.0005 79.7999 37.648 77.9535C37.1564 78.1899 36.6888 78.4714 36.2571 78.7866C35.9813 81.0946 36.7367 84.3145 38.5113 87.5907C38.6073 87.7821 38.7272 87.9848 38.8351 88.1649C40.142 90.4053 41.7607 92.3193 43.4394 93.5915C43.931 93.9517 44.4106 94.267 44.8663 94.5034C44.8663 94.5034 44.8663 94.5034 44.8783 94.5147C45.4178 94.357 45.9454 94.1656 46.449 93.918C45.7536 93.7153 44.9862 93.3213 44.1828 92.7133Z" fill="#5D5F61"/>
<path d="M136.905 82.8059C136.689 84.3258 135.286 88.6715 135.286 88.6715C133.488 87.9848 131.845 87.5006 130.346 87.1629C130.202 86.1609 129.855 83.7291 129.723 82.2767C129.423 83.4701 128.644 85.8569 128.332 86.7914C126.198 86.4761 124.399 86.4986 122.9 86.7238C122.804 85.947 122.445 83.2675 122.253 82.5019C122.109 83.1774 121.989 84.6523 121.845 85.339C121.713 85.9695 121.545 86.6563 121.461 87.0053C119.891 87.4106 118.74 88.0298 117.912 88.6152C117.277 89.0205 116.725 89.5047 116.329 90.1239C116.258 90.2252 116.21 90.2927 116.21 90.2927C117.361 89.3133 118.955 88.7729 120.442 88.4351C124.531 87.5119 129.867 87.8609 133.716 89.4596C135.298 90.1239 135.61 91.261 134.567 92.5332C133.044 94.4133 130.43 93.5577 128.332 93.3888C126.509 93.2425 123.488 93.4564 122.948 95.5617C127.025 96.1584 128.476 100.358 128.368 103.769C129.879 100.617 128.895 97.2054 125.286 94.9875C127.6 93.7941 135.25 97.273 136.401 91.7338C136.905 89.2457 136.977 83.9768 136.905 82.8059Z" fill="#875334"/>
<defs>
<linearGradient id="paint0_linear_189_313" x1="58.4928" y1="37.0272" x2="58.4928" y2="77.6345" gradientUnits="userSpaceOnUse">
<stop stop-color="#1DE9B6"/>
<stop offset="0.1892" stop-color="#19DDAF"/>
<stop offset="0.5292" stop-color="#10BE9C"/>
<stop offset="0.9781" stop-color="#018C7D"/>
<stop offset="1" stop-color="#00897B"/>
</linearGradient>
<linearGradient id="paint1_linear_189_313" x1="128.491" y1="86.7548" x2="137.003" y2="86.7548" gradientUnits="userSpaceOnUse">
<stop offset="0.5" stop-color="#A56C43"/>
<stop offset="1" stop-color="#8D5738"/>
</linearGradient>
<linearGradient id="paint2_linear_189_313" x1="114.146" y1="86.5156" x2="143.631" y2="86.5156" gradientUnits="userSpaceOnUse">
<stop offset="0.5" stop-color="#A56C43"/>
<stop offset="1" stop-color="#8D5738"/>
</linearGradient>
<linearGradient id="paint3_linear_189_313" x1="121.741" y1="86.5748" x2="129.854" y2="86.3804" gradientUnits="userSpaceOnUse">
<stop offset="0.5" stop-color="#A56C43"/>
<stop offset="1" stop-color="#8D5738"/>
</linearGradient>
<linearGradient id="paint4_linear_189_313" x1="125.475" y1="89.9372" x2="123.356" y2="107.304" gradientUnits="userSpaceOnUse">
<stop offset="0.5" stop-color="#A56C43"/>
<stop offset="1" stop-color="#8D5738"/>
</linearGradient>
<linearGradient id="paint5_linear_189_313" x1="38.0779" y1="110.988" x2="38.0779" y2="139.922" gradientUnits="userSpaceOnUse">
<stop offset="0.004" stop-color="#666666"/>
<stop offset="0.0118" stop-color="#656565"/>
<stop offset="0.2735" stop-color="#484747"/>
<stop offset="0.5297" stop-color="#343131"/>
<stop offset="0.7756" stop-color="#272324"/>
<stop offset="1" stop-color="#231F20"/>
</linearGradient>
<linearGradient id="paint6_linear_189_313" x1="106.739" y1="110.988" x2="106.739" y2="139.922" gradientUnits="userSpaceOnUse">
<stop offset="0.004" stop-color="#666666"/>
<stop offset="0.0118" stop-color="#656565"/>
<stop offset="0.2735" stop-color="#484747"/>
<stop offset="0.5297" stop-color="#343131"/>
<stop offset="0.7756" stop-color="#272324"/>
<stop offset="1" stop-color="#231F20"/>
</linearGradient>
<linearGradient id="paint7_linear_189_313" x1="43.5833" y1="124.184" x2="43.5833" y2="139.581" gradientUnits="userSpaceOnUse">
<stop offset="0.004" stop-color="#666666"/>
<stop offset="0.2657" stop-color="#717273"/>
<stop offset="0.6493" stop-color="#7C7E81"/>
<stop offset="1" stop-color="#808285"/>
</linearGradient>
<linearGradient id="paint8_linear_189_313" x1="44.8627" y1="107.109" x2="44.8627" y2="138.072" gradientUnits="userSpaceOnUse">
<stop stop-color="#00BFA5"/>
<stop offset="0.2747" stop-color="#00BBA2"/>
<stop offset="0.5448" stop-color="#00AF99"/>
<stop offset="0.8122" stop-color="#009C89"/>
<stop offset="1" stop-color="#00897B"/>
</linearGradient>
<linearGradient id="paint9_linear_189_313" x1="99.64" y1="124.184" x2="99.64" y2="139.581" gradientUnits="userSpaceOnUse">
<stop offset="0.004" stop-color="#666666"/>
<stop offset="0.2657" stop-color="#717273"/>
<stop offset="0.6493" stop-color="#7C7E81"/>
<stop offset="1" stop-color="#808285"/>
</linearGradient>
<linearGradient id="paint10_linear_189_313" x1="98.2197" y1="107.109" x2="98.2197" y2="138.072" gradientUnits="userSpaceOnUse">
<stop stop-color="#00BFA5"/>
<stop offset="0.2747" stop-color="#00BBA2"/>
<stop offset="0.5448" stop-color="#00AF99"/>
<stop offset="0.8122" stop-color="#009C89"/>
<stop offset="1" stop-color="#00897B"/>
</linearGradient>
<linearGradient id="paint11_linear_189_313" x1="127.235" y1="105.816" x2="127.235" y2="149.054" gradientUnits="userSpaceOnUse">
<stop offset="0.004" stop-color="#666666"/>
<stop offset="0.6314" stop-color="#393637"/>
<stop offset="1" stop-color="#231F20"/>
</linearGradient>
<radialGradient id="paint12_radial_189_313" cx="0" cy="0" r="1" gradientUnits="userSpaceOnUse" gradientTransform="translate(71.6692 48.4876) scale(45.6747 48.3842)">
<stop offset="0.7945" stop-color="#554138" stop-opacity="0"/>
<stop offset="1" stop-color="#554138"/>
</radialGradient>
</defs>
</svg>
