<svg width="200" height="200" viewBox="0 0 200 200" fill="none" xmlns="http://www.w3.org/2000/svg">
<g id="Group 10">
<g id="&#240;&#159;&#166;&#134; icon &#34;User filled&#34;">
<path id="Vector" d="M55.2959 161.479H145.171V139.01C145.161 130.671 141.844 122.675 135.947 116.778C130.05 110.881 122.054 107.564 113.715 107.554H86.7521C78.4124 107.564 70.4171 110.881 64.52 116.778C58.6229 122.675 55.3057 130.671 55.2959 139.01V161.479Z" fill="#00897B"/>
<path id="Vector_2" d="M68.7773 67.1105C68.7773 73.332 70.6222 79.4137 74.0787 84.5866C77.5351 89.7596 82.4479 93.7914 88.1958 96.1723C93.9437 98.5531 100.268 99.1761 106.37 97.9623C112.472 96.7486 118.077 93.7527 122.477 89.3534C126.876 84.9542 129.872 79.3492 131.085 73.2473C132.299 67.1454 131.676 60.8206 129.295 55.0727C126.915 49.3248 122.883 44.412 117.71 40.9556C112.537 37.4991 106.455 35.6542 100.234 35.6542C91.8909 35.6542 83.8899 38.9684 77.9907 44.8676C72.0915 50.7668 68.7773 58.7678 68.7773 67.1105Z" fill="#00897B"/>
</g>
<path id="Ellipse 14" d="M200 100C200 155.228 155.228 200 100 200C44.7715 200 0 155.228 0 100C0 44.7715 44.7715 0 100 0C155.228 0 200 44.7715 200 100Z" fill="#60FDBB" fill-opacity="0.17"/>
</g>
</svg>
